<?xml version="1.0" encoding="UTF-8"?>
<svg id="Layer_1" xmlns="http://www.w3.org/2000/svg" version="1.1" viewBox="0 0 792 360">
  <!-- Generator: Adobe Illustrator 29.5.1, SVG Export Plug-In . SVG Version: 2.1.0 Build 141)  -->
  <defs>
    <style>
      .st0 {
        fill: #231f20;
      }

      .st1 {
        fill: #ce0e2d;
      }
    </style>
  </defs>
  <path class="st0" d="M121.4,184.94l.28-1.92,7.04.17,6.43-.17.28,1.92-4.67.71v22.44c0,7.15-2.92,11.93-13.86,14.46-10.83,0-14.68-5.83-14.68-14.57v-22.33l-4.95-.71.27-1.92,7.59.17,7.53-.17.28,1.92-4.67.71v23.15c0,6.82,2.91,10.72,9.18,10.72,5.72,0,8.91-3.85,8.91-10.89v-22.99l-4.95-.71Z"/>
  <path class="st0" d="M143.58,221.45l-6.32.17-.27-1.92,3.85-.55v-20.07l-3.85.33-.28-1.92,6.6-1.7,2.36-.17.27,4.62,8.14-5.33c7.04,0,8.19,2.36,8.19,8.96v15.29l4.18.55-.27,1.92-6.32-.17-5.28.17-.28-1.92,2.75-.55v-15.73c0-2.86-1.27-4.12-3.63-4.12-1.92,0-3.85,1.21-5.72,2.47l-1.65,1.1v16.28l3.02.55-.28,1.92-5.22-.17Z"/>
  <path class="st0" d="M176.91,221.45l-6.32.17-.27-1.92,3.85-.55v-20.07l-3.85.33-.28-1.92,6.6-1.7,2.75-.22v23.59l4.12.55-.27,1.92-6.32-.17ZM174.16,183.62l3.96-.28,1.54.28.28,3.08-.61,2.64-3.9.33-1.48-.33-.33-3.08.55-2.64Z"/>
  <path class="st0" d="M199.82,218.04l6.65-19.91-2.53-.55.28-1.92,4.84.17,4.56-.17.27,1.92-3.52.55-9.02,22.6-4.01,1.65-9.57-24.25-3.41-.55.28-1.92,6.32.17,5.77-.17.27,1.92-3.63.55,5.99,16.11.44,3.79Z"/>
  <path class="st0" d="M220.54,207.54c0,6.27,3.35,10.72,9.13,10.72,2.2,0,4.84-1.04,6.87-2.31l.88,2.09c-2.64,1.82-6.1,3.35-9.62,4.34-6.65,0-12.65-4.73-12.65-13.36,0-8.14,4.89-12.48,12.43-14.13,7.26,0,9.73,4.56,9.73,10.34v2.31h-16.77ZM231.59,204.79c0-4.23-.82-7.15-5.06-7.15-3.36,0-5.5,3.13-5.94,7.7l11-.55Z"/>
  <path class="st0" d="M249.86,202.86l6.27-7.7h4.4v5.5h-4.07c-1.32.28-3.74,2.09-5.22,3.91l-1.1,1.32v13.09l5.77.55-.27,2.09-7.97-.17-6.16.17-.27-1.92,3.85-.55v-20.07l-3.85.33-.28-1.92,6.6-1.7,2.2-.17.11,7.26Z"/>
  <path class="st0" d="M278.26,198.8c-.55-.33-2.2-1.21-4.18-1.21-2.14,0-4.18,1.16-4.18,3.24,0,1.76,1.37,2.86,3.85,4.12l4.23,2.14c3.68,1.87,5.17,3.96,5.17,7.09,0,4.95-4.01,6.82-10.34,8.19-3.36,0-6.93-1.65-8.36-2.47l-1.04-6.21h3.52l1.87,4.56c1.16.77,2.75,1.38,4.51,1.38,2.92,0,4.4-1.87,4.4-4.18,0-2.15-1.16-3.08-4.01-4.56l-4.34-2.25c-2.37-1.21-4.62-3.3-4.62-6.38,0-3.85,3.57-6,9.95-7.37,2.97,0,6.16,1.32,7.75,2.47v5.5h-2.91l-1.27-4.07Z"/>
  <path class="st0" d="M293.82,221.45l-6.32.17-.27-1.92,3.85-.55v-20.07l-3.85.33-.27-1.92,6.6-1.7,2.75-.22v23.59l4.12.55-.28,1.92-6.32-.17ZM291.07,183.62l3.96-.28,1.54.28.28,3.08-.61,2.64-3.9.33-1.48-.33-.33-3.08.55-2.64Z"/>
  <path class="st0" d="M301.28,198.85v-.93l1.92-1.92h3.58v-3.57l3.57-3.58h1.43v7.53h8.3v2.47h-8.25v16.11c0,1.59.61,3.3,2.91,3.3,1.6,0,2.8-.55,4.35-1.32l.93,1.87-6.43,3.57c-6.16,0-6.98-2.2-6.98-7.15v-16.39h-5.33Z"/>
  <path class="st0" d="M327.26,234.49v-5.5h4.73l5.44-8.3-2.2.66-8.96-23.21-3.41-.55.27-1.92,6.32.17,5.77-.17.28,1.92-3.63.55,5.83,16.11.44,3.79,6.54-19.91-2.53-.55.27-1.92,4.84.17,4.56-.17.28,1.92-3.52.55-8.63,22.49-6.16,13.86h-6.54Z"/>
  <path class="st0" d="M394.96,208.09c0,8.19-5,12.92-13.53,14.3-7.31,0-12.26-5.66-12.26-13.14,0-8.25,5-12.92,13.53-14.35,7.31,0,12.26,5.72,12.26,13.2ZM382.81,219.69c4.4,0,6.65-4.51,6.65-10.45,0-6.98-3.35-11.66-8.14-11.66-4.45,0-6.65,4.51-6.65,10.5s3.25,11.6,8.14,11.6Z"/>
  <path class="st0" d="M407.67,196.27h6.87v2.58h-6.87v20.29l6.32.39-.28,2.09-8.52-.17-6.32.17-.28-1.92,3.85-.55v-20.29h-4.84v-.93l1.65-1.92h3.19v-.55c0-3.3,1.04-5.44,3.02-7.7l4.62-5.22h6.93v4.4h-7.15l-1.04,1.49c-.77,1.04-1.15,2.64-1.15,6.21v1.65Z"/>
  <path class="st0" d="M163.54,277.8c0-21.7,15.2-36.5,37.4-36.5,9.4,0,17.4,2.5,24.6,7.8l-5.5,7.8c-5.9-4.2-12.4-6.4-19.4-6.4-16.1,0-27.3,11.1-27.3,27.3s11.2,27.3,27.3,27.3c7,0,13.5-2.2,19.4-6.4l5.5,7.8c-7.2,5.3-15.2,7.8-24.6,7.8-22.2,0-37.4-14.8-37.4-36.5Z"/>
  <path class="st0" d="M244.44,312.81h-9v-70h9v70Z"/>
  <path class="st0" d="M303.86,287.1c2.4,2.4,4.6,5.6,5.5,7.8l.4-.1c-.6-2.7-1-6.8-1-12.6v-39.4h9v71h-.8l-42.7-45.3c-2.3-2.4-4.5-5.6-5.5-7.8l-.3.1c.6,2.7.9,6.8.9,12.5v39.5h-9v-71h.9l42.6,45.3Z"/>
  <path class="st0" d="M329.87,277.8c0-21.7,15.2-36.5,37.4-36.5,9.4,0,17.4,2.5,24.6,7.8l-5.5,7.8c-5.9-4.2-12.4-6.4-19.4-6.4-16.1,0-27.3,11.1-27.3,27.3s11.2,27.3,27.3,27.3c7,0,13.5-2.2,19.4-6.4l5.5,7.8c-7.2,5.3-15.2,7.8-24.6,7.8-22.2,0-37.4-14.8-37.4-36.5Z"/>
  <path class="st0" d="M410.77,312.81h-9v-70h9v70Z"/>
  <path class="st0" d="M470.18,287.1c2.4,2.4,4.6,5.6,5.5,7.8l.4-.1c-.6-2.7-1-6.8-1-12.6v-39.4h9v71h-.8l-42.7-45.3c-2.3-2.4-4.5-5.6-5.5-7.8l-.3.1c.6,2.7.9,6.8.9,12.5v39.5h-9v-71h.9l42.6,45.3Z"/>
  <path class="st0" d="M543.7,287.1c2.4,2.4,4.6,5.6,5.5,7.8l.4-.1c-.6-2.7-1-6.8-1-12.6v-39.4h9v71h-.8l-42.7-45.3c-2.3-2.4-4.5-5.6-5.5-7.8l-.3.1c.6,2.7.9,6.8.9,12.5v39.5h-9v-71h.9l42.6,45.3Z"/>
  <path class="st0" d="M599.14,241.3h1l32.7,71.5h-10.1l-8.7-19.6h-28.8l-8.7,19.6h-10.1l32.7-71.5ZM593.34,285.5h12.6c3.1,0,4.7.1,5.6.2l.1-.1c-.8-1-1.8-2.6-3.1-5.7l-6.2-14.6c-1.4-3.6-2.3-6.4-2.5-8.2h-.4c-.2,1.8-1.1,4.6-2.5,8.2l-6.2,14.6c-1.3,3.1-2.3,4.7-3.1,5.7l.1.1c.9-.1,2.5-.2,5.6-.2Z"/>
  <path class="st0" d="M677.05,251.4h-17.9c-1.2,0-1.9,0-2.6-.3l-.1.2c.2.5.3,1.3.3,2.4v59.1h-9v-59.1c0-1.1.1-1.9.3-2.4l-.2-.2c-.7.3-1.3.3-2.5.3h-18v-8.6h49.7v8.6Z"/>
  <path class="st0" d="M694.74,312.81h-9v-70h9v70Z"/>
  <rect class="st1" x="523.96" y="45.75" width="33.62" height="9.81"/>
  <path class="st1" d="M499.13,141c0-26.77,15.65-48.41,38.76-60.55v-13.15c-33.22,10.88-57.05,38.97-57.05,73.7,0,17.18,4.48,30.6,12.28,42.62-20.54-3.61-29.4-17.94-29.4-42.62V45.69h-36.87v9.81h17.62v85.5c0,34.25,22.33,52.05,56.31,52.61,13,14.45,31.39,24.53,52.29,27.51,1.65.25,3.22.41,4.52.53v-9.74c-1.68-.29-2.85-.56-2.85-.56-32.02-8.15-55.63-35.4-55.63-70.34Z"/>
  <path class="st1" d="M576.85,141v-68.97c22.74,0,36.37,13.52,37.11,29.02l8.46,1.66,5.92-34.5-10.07-1.96-1.23,7.36c-18.16-9.13-33.4-10.79-48.54-10.79-3.71,0-7.37.22-10.96.65l.07,77.53c0,15.08-2.18,23.98-9.9,33.47-8.49-9.37-9.83-20.01-9.83-33.47,0-7.17.01-41.28.01-41.28-11.27,10.9-18.31,24.44-18.31,41.28,0,35.24,27.21,62.76,60.42,62.76,11.4,0,24.54-2.79,34.13-9.31l-2.42-3.61c-12.95,6.61-39.23,8.14-55.29-6.88,13.58-10.02,20.42-22.84,20.42-42.95Z"/>
</svg>