<?xml version="1.0" encoding="UTF-8"?>
<svg id="Layer_1" xmlns="http://www.w3.org/2000/svg" xmlns:xlink="http://www.w3.org/1999/xlink" version="1.1" viewBox="0 0 640 480">
  <!-- Generator: Adobe Illustrator 29.5.1, SVG Export Plug-In . SVG Version: 2.1.0 Build 141)  -->
  <defs>
    <style>
      .st0 {
        fill: none;
      }

      .st1 {
        fill: #e00122;
      }

      .st2 {
        clip-path: url(#clippath);
      }
    </style>
    <clipPath id="clippath">
      <rect class="st0" width="640" height="480"/>
    </clipPath>
  </defs>
  <g class="st2">
    <path d="M85.16,389.93c-22.85,0-38.49,15.23-38.49,37.57s15.64,37.56,38.49,37.56c9.68,0,17.91-2.57,25.32-8.03l-5.66-8.03c-6.07,4.32-12.76,6.59-19.96,6.59-16.57,0-28.1-11.42-28.1-28.09s11.52-28.1,28.1-28.1c7.2,0,13.89,2.26,19.96,6.59l5.66-8.03c-7.41-5.46-15.65-8.03-25.32-8.03h0ZM256.32,389.93c-22.85,0-38.49,15.23-38.49,37.57s15.64,37.56,38.49,37.56c9.67,0,17.91-2.57,25.32-8.03l-5.66-8.03c-6.07,4.32-12.76,6.59-19.96,6.59-16.57,0-28.1-11.42-28.1-28.09s11.53-28.1,28.1-28.1c7.2,0,13.89,2.26,19.96,6.59l5.66-8.03c-7.41-5.46-15.64-8.03-25.32-8.03h0ZM494.95,389.93l-33.66,73.59h10.39l8.95-20.17h29.64l8.95,20.17h10.4l-33.65-73.59h-1.03ZM146.29,390.45v73.08h9.26v-40.65c0-5.87-.31-10.09-.93-12.87l.31-.1c1.03,2.26,3.29,5.56,5.66,8.03l43.95,46.62h.82v-73.07h-9.26v40.55c0,5.97.41,10.19,1.03,12.97l-.41.1c-.93-2.26-3.19-5.56-5.66-8.03l-43.84-46.62h-.93,0ZM317.46,390.45v73.08h9.26v-40.65c0-5.87-.31-10.09-.93-12.87l.31-.1c1.03,2.26,3.29,5.56,5.66,8.03l43.94,46.62h.83v-73.07h-9.26v40.55c0,5.97.41,10.19,1.03,12.97l-.41.1c-.93-2.26-3.19-5.56-5.66-8.03l-43.85-46.62h-.92ZM393.12,390.45v73.08h9.27v-40.65c0-5.87-.31-10.09-.93-12.87l.31-.1c1.03,2.26,3.29,5.56,5.66,8.03l43.95,46.62h.82v-73.07h-9.26v40.55c0,5.97.41,10.19,1.03,12.97l-.41.1c-.92-2.26-3.19-5.56-5.66-8.03l-43.84-46.62h-.93,0ZM120.66,463.52h9.26v-72.04h-9.26v72.04ZM291.83,463.52h9.26v-72.04h-9.26v72.04ZM523.98,391.48v8.85h18.52c1.23,0,1.85,0,2.57-.31l.21.21c-.2.51-.31,1.34-.31,2.47v60.83h9.26v-60.83c0-1.13-.1-1.96-.31-2.47l.1-.21c.72.31,1.44.31,2.68.31h18.42v-8.85h-51.15,0ZM584.07,463.52h9.26v-72.04h-9.26v72.04ZM495.25,406.2h.41c.21,1.85,1.14,4.73,2.57,8.44l6.38,15.03c1.34,3.19,2.37,4.84,3.19,5.87l-.1.1c-.93-.1-2.57-.21-5.76-.21h-12.96c-3.19,0-4.84.1-5.77.21l-.1-.1c.83-1.03,1.85-2.68,3.19-5.87l6.38-15.03c1.44-3.7,2.37-6.59,2.57-8.44"/>
    <path class="st1" d="M120.02,14.94v19.41h34.85v169.14c0,67.77,44.17,102.96,111.41,104.07,25.71,28.59,62.11,48.54,103.45,54.43,3.26.48,6.37.82,8.94,1.04v-19.28c-3.32-.57-5.63-1.11-5.63-1.11-63.35-16.12-110.06-70.04-110.06-139.16,0-52.96,30.96-95.78,76.69-119.79v-26.02c-65.73,21.52-112.86,77.09-112.86,145.81,0,33.98,8.86,60.53,24.3,84.31-40.65-7.14-58.16-35.49-58.16-84.31V14.94h-72.93ZM312.11,34.44h66.51V15.04h-66.51v19.4ZM400.22,48.83c-7.34,0-14.58.43-21.69,1.28l.14,153.38c0,29.83-4.31,47.44-19.58,66.21-16.8-18.53-19.45-39.58-19.45-66.21,0-14.18.02-81.67.02-81.67-22.29,21.56-36.23,48.35-36.23,81.67,0,69.72,53.83,124.16,119.53,124.16,22.55,0,48.55-5.51,67.53-18.42l-4.79-7.15c-25.61,13.07-77.6,16.11-109.37-13.62,26.86-19.82,40.4-45.19,40.4-84.97V67.04c44.98,0,71.96,26.76,73.41,57.42l16.73,3.29,11.72-68.26-19.92-3.88-2.43,14.57c-35.93-18.07-66.08-21.35-96.03-21.35h0Z"/>
  </g>
</svg>