<?xml version="1.0" encoding="UTF-8" standalone="no"?>
<!-- Created with Inkscape (http://www.inkscape.org/) -->

<svg
   version="1.1"
   id="svg182"
   width="469.88205"
   height="409.75375"
   viewBox="0 0 469.88205 409.75375"
   xmlns="http://www.w3.org/2000/svg"
   xmlns:svg="http://www.w3.org/2000/svg">
  <defs
     id="defs186" />
  <g
     id="g188">
    <path
       style="fill:#000000"
       d="m 287,409.32979 c -21.4137,-2.3914 -53.26244,-14.90874 -76.5,-30.0664 -12.50248,-8.15526 -17.55081,-12.23122 -29.5,-23.81792 l -9.5,-9.21181 -11.71034,-0.61897 C 134.15577,344.25976 109.48244,336.95237 91,325.24156 64.88944,308.69743 48.3029,282.93883 42.33882,249.67162 40.89927,241.64188 40.64047,227.02268 40.26014,132.25 L 39.82572,24 H 21.49465 C 11.41256,24 2.45177,23.72685 1.58179,23.39301 0.26748,22.88867 0,20.85946 0,11.39301 V 0 h 43 c 23.65,0 43.07684,0.1125 43.17075,0.25 0.0939,0.1375 0.46958,55.6 0.83482,123.25 0.64731,119.89842 0.71691,123.23955 2.76002,132.5 4.54157,20.58477 10.28373,32.08513 21.71965,43.5 9.06101,9.04432 16.22386,13.63544 27.34928,17.52984 14.50449,5.07723 13.97224,5.86437 6.27528,-9.28043 C 127.05182,272.21789 121.07306,231.96106 127.91603,191.9784 137.18396,137.82692 173.90373,90.061433 227,63.088826 238.88697,57.050312 255.85089,50 258.49332,50 c 1.23971,0 1.50542,1.727644 1.49957,9.75 -0.004,5.3625 -0.28389,12.679461 -0.62218,16.259913 l -0.61508,6.509914 -8.24114,4.82489 C 237.8509,94.758788 225.49445,104.43175 214.5,115.53783 c -37.51748,37.89841 -52.30913,88.42085 -41.46571,141.63045 12.03173,59.04069 56.32477,107.28966 115.71571,126.05058 7.20131,2.27481 10.23151,3.69044 10.18784,4.7595 -0.0342,0.8369 -0.83144,6.02164 -1.77168,11.52164 -1.89145,11.06419 -1.60375,10.78601 -10.16616,9.82979 z m 49,-40.86748 c -58.86877,-9.30806 -105.44711,-55.11729 -118.21142,-116.25948 -3.14328,-15.05655 -3.12049,-40.1401 0.0499,-54.9365 5.1008,-23.80577 15.00785,-43.33812 31.83371,-62.76212 3.80945,-4.39768 7.69162,-8.14317 8.62705,-8.32332 1.58503,-0.30525 1.70096,3.57337 1.70359,56.99579 0.002,35.65688 0.41968,60.72504 1.10574,66.32332 2.06214,16.82742 7.37203,31.16789 16.23945,43.85808 l 4.0934,5.85808 3.28458,-3.85808 C 289.50824,289.74084 297.6062,272.74475 299.9051,263.5 303.77935,247.92016 304,241.25964 304,139.89287 V 41.233263 l 2.25,-0.606614 c 1.2375,-0.333637 9.225,-0.898011 17.75,-1.254163 37.41502,-1.563103 79.86381,6.381883 111.26275,20.824642 3.71951,1.710887 6.99217,2.881281 7.27258,2.600875 0.28041,-0.280406 1.12774,-3.752738 1.88296,-7.716293 0.75522,-3.963555 1.53256,-7.339717 1.72742,-7.502584 0.32975,-0.275606 16.42328,2.642063 21.7137,3.936575 2.2457,0.5495 2.3254,0.852211 1.65366,6.280812 -1.19923,9.691591 -12.30069,75.324437 -12.83032,75.854067 -0.27488,0.27489 -4.91833,-0.32357 -10.31878,-1.32991 C 435.33998,130.26642 436.64249,131.67352 433.57056,118.5 426.71213,89.088742 398.6993,66.790409 364.46791,63.493996 361.18556,63.177912 356.8125,62.707138 354.75,62.447832 L 351,61.976365 350.9571,136.73818 c -0.0515,89.71869 -0.734,108.51619 -4.46954,123.09525 -6.08363,23.74322 -17.28643,42.03122 -34.96835,57.08409 -4.10712,3.49644 -7.23036,6.74085 -6.94054,7.20979 1.30005,2.10352 19.33469,13.06629 26.18985,15.9201 14.97307,6.23331 24.87042,8.15167 44.73147,8.6701 15.72291,0.41041 19.32285,0.19726 28.45686,-1.68492 5.75128,-1.18513 13.85128,-3.47521 18,-5.08908 4.14873,-1.61387 8.21814,-2.93081 9.04314,-2.92653 1.85862,0.01 6.22936,6.56346 5.80876,8.71008 -0.67935,3.46724 -20.20058,12.29539 -37.18322,16.8155 -19.77337,5.26289 -45.21719,6.83039 -63.62554,3.91975 z M 226.21817,12.2615 226.5,0.5 264.88307,0.23799 c 28.01339,-0.19122 38.76109,0.0517 39.78231,0.89927 1.07325,0.89071 1.33348,3.63112 1.11694,11.76201 L 305.5,23.5 265.71817,23.7615 225.93633,24.023 Z"
       id="path300" />
  </g>
</svg>
