<?xml version="1.0" encoding="UTF-8"?>
<svg id="Layer_1" xmlns="http://www.w3.org/2000/svg" version="1.1" viewBox="0 0 376 259.5">
  <!-- Generator: Adobe Illustrator 29.5.1, SVG Export Plug-In . SVG Version: 2.1.0 Build 141)  -->
  <defs>
    <style>
      .st0, .st1 {
        display: none;
        fill: #1c1b1a;
      }

      .st2 {
        fill: #fff;
      }

      .st1 {
        font-family: MyriadPro-Regular, 'Myriad Pro';
        font-size: 18px;
      }
    </style>
  </defs>
  <rect class="st0" x="-83.5" y="-17.7" width="477.5" height="339.2"/>
  <g>
    <g>
      <g>
        <path class="st2" d="M35.81,107.27l.14-.96,3.52.08,3.22-.08.14.96-2.34.36v11.22c0,3.57-1.46,5.96-6.93,7.23-5.42,0-7.34-2.91-7.34-7.28v-11.16l-2.47-.36.14-.96,3.79.08,3.77-.08.14.96-2.34.36v11.57c0,3.41,1.46,5.36,4.59,5.36,2.86,0,4.45-1.92,4.45-5.44v-11.49l-2.47-.36Z"/>
        <path class="st2" d="M46.9,125.52l-3.16.08-.14-.96,1.92-.28v-10.03l-1.92.16-.14-.96,3.3-.85,1.18-.08.14,2.31,4.07-2.67c3.52,0,4.1,1.18,4.1,4.48v7.64l2.09.28-.14.96-3.16-.08-2.64.08-.14-.96,1.37-.28v-7.86c0-1.43-.63-2.06-1.81-2.06-.96,0-1.92.6-2.86,1.24l-.82.55v8.14l1.51.28-.14.96-2.61-.08Z"/>
        <path class="st2" d="M63.56,125.52l-3.16.08-.14-.96,1.92-.28v-10.03l-1.92.16-.14-.96,3.3-.85,1.37-.11v11.79l2.06.28-.14.96-3.16-.08ZM62.18,106.61l1.98-.14.77.14.14,1.54-.3,1.32-1.95.16-.74-.16-.16-1.54.28-1.32Z"/>
        <path class="st2" d="M75.01,123.82l3.33-9.95-1.26-.27.14-.96,2.42.08,2.28-.08.14.96-1.76.27-4.51,11.3-2.01.82-4.78-12.12-1.7-.27.14-.96,3.16.08,2.89-.08.14.96-1.81.27,3,8.05.22,1.9Z"/>
        <path class="st2" d="M85.37,118.57c0,3.13,1.68,5.36,4.56,5.36,1.1,0,2.42-.52,3.44-1.15l.44,1.04c-1.32.91-3.05,1.68-4.81,2.17-3.33,0-6.32-2.36-6.32-6.68,0-4.07,2.45-6.24,6.21-7.06,3.63,0,4.87,2.28,4.87,5.17v1.15h-8.38ZM90.89,117.19c0-2.12-.41-3.57-2.53-3.57-1.68,0-2.75,1.57-2.97,3.85l5.5-.28Z"/>
        <path class="st2" d="M100.02,116.23l3.13-3.85h2.2v2.75h-2.03c-.66.14-1.87,1.04-2.61,1.95l-.55.66v6.54l2.89.27-.14,1.04-3.99-.08-3.08.08-.14-.96,1.92-.28v-10.03l-1.92.16-.14-.96,3.3-.85,1.1-.08.06,3.63Z"/>
        <path class="st2" d="M114.22,114.2c-.27-.16-1.1-.6-2.09-.6-1.07,0-2.09.58-2.09,1.62,0,.88.69,1.43,1.92,2.06l2.12,1.07c1.84.93,2.58,1.98,2.58,3.55,0,2.47-2.01,3.41-5.17,4.1-1.68,0-3.46-.82-4.18-1.24l-.52-3.11h1.76l.93,2.28c.58.38,1.37.69,2.25.69,1.46,0,2.2-.93,2.2-2.09,0-1.07-.58-1.54-2.01-2.28l-2.17-1.13c-1.18-.6-2.31-1.65-2.31-3.19,0-1.92,1.79-3,4.98-3.68,1.48,0,3.08.66,3.88,1.24v2.75h-1.46l-.63-2.03Z"/>
        <path class="st2" d="M121.99,125.52l-3.16.08-.14-.96,1.92-.28v-10.03l-1.92.16-.14-.96,3.3-.85,1.37-.11v11.79l2.06.28-.14.96-3.16-.08ZM120.62,106.61l1.98-.14.77.14.14,1.54-.3,1.32-1.95.16-.74-.16-.16-1.54.27-1.32Z"/>
        <path class="st2" d="M125.73,114.22v-.47l.96-.96h1.79v-1.79l1.79-1.79h.71v3.77h4.15v1.24h-4.12v8.05c0,.8.3,1.65,1.46,1.65.8,0,1.4-.27,2.17-.66l.47.93-3.22,1.79c-3.08,0-3.49-1.1-3.49-3.57v-8.19h-2.67Z"/>
        <path class="st2" d="M138.71,132.04v-2.75h2.36l2.72-4.15-1.1.33-4.48-11.6-1.7-.27.14-.96,3.16.08,2.89-.08.14.96-1.81.27,2.91,8.05.22,1.9,3.27-9.95-1.26-.27.14-.96,2.42.08,2.28-.08.14.96-1.76.27-4.32,11.24-3.08,6.93h-3.27Z"/>
        <path class="st2" d="M172.55,118.84c0,4.1-2.5,6.46-6.76,7.15-3.66,0-6.13-2.83-6.13-6.57,0-4.12,2.5-6.46,6.76-7.17,3.66,0,6.13,2.86,6.13,6.6ZM166.48,124.64c2.2,0,3.33-2.25,3.33-5.22,0-3.49-1.68-5.83-4.07-5.83-2.23,0-3.33,2.25-3.33,5.25s1.62,5.8,4.07,5.8Z"/>
        <path class="st2" d="M178.9,112.93h3.44v1.29h-3.44v10.14l3.16.19-.14,1.04-4.26-.08-3.16.08-.14-.96,1.92-.28v-10.14h-2.42v-.47l.82-.96h1.59v-.27c0-1.65.52-2.72,1.51-3.85l2.31-2.61h3.46v2.2h-3.57l-.52.74c-.38.52-.58,1.32-.58,3.11v.82Z"/>
      </g>
      <g>
        <path class="st2" d="M56.88,153.69c0-10.85,7.6-18.25,18.7-18.25,4.7,0,8.7,1.25,12.3,3.9l-2.75,3.9c-2.95-2.1-6.2-3.2-9.7-3.2-8.05,0-13.65,5.55-13.65,13.65s5.6,13.65,13.65,13.65c3.5,0,6.75-1.1,9.7-3.2l2.75,3.9c-3.6,2.65-7.6,3.9-12.3,3.9-11.1,0-18.7-7.4-18.7-18.25Z"/>
        <path class="st2" d="M97.31,171.18h-4.5v-34.99h4.5v34.99Z"/>
        <path class="st2" d="M127.01,158.34c1.2,1.2,2.3,2.8,2.75,3.9l.2-.05c-.3-1.35-.5-3.4-.5-6.3v-19.7h4.5v35.49h-.4l-21.35-22.64c-1.15-1.2-2.25-2.8-2.75-3.9l-.15.05c.3,1.35.45,3.4.45,6.25v19.75h-4.5v-35.49h.45l21.3,22.64Z"/>
        <path class="st2" d="M140.02,153.69c0-10.85,7.6-18.25,18.7-18.25,4.7,0,8.7,1.25,12.3,3.9l-2.75,3.9c-2.95-2.1-6.2-3.2-9.7-3.2-8.05,0-13.65,5.55-13.65,13.65s5.6,13.65,13.65,13.65c3.5,0,6.75-1.1,9.7-3.2l2.75,3.9c-3.6,2.65-7.6,3.9-12.3,3.9-11.1,0-18.7-7.4-18.7-18.25Z"/>
        <path class="st2" d="M180.45,171.18h-4.5v-34.99h4.5v34.99Z"/>
        <path class="st2" d="M210.15,158.34c1.2,1.2,2.3,2.8,2.75,3.9l.2-.05c-.3-1.35-.5-3.4-.5-6.3v-19.7h4.5v35.49h-.4l-21.34-22.64c-1.15-1.2-2.25-2.8-2.75-3.9l-.15.05c.3,1.35.45,3.4.45,6.25v19.75h-4.5v-35.49h.45l21.3,22.64Z"/>
        <path class="st2" d="M246.9,158.34c1.2,1.2,2.3,2.8,2.75,3.9l.2-.05c-.3-1.35-.5-3.4-.5-6.3v-19.7h4.5v35.49h-.4l-21.34-22.64c-1.15-1.2-2.25-2.8-2.75-3.9l-.15.05c.3,1.35.45,3.4.45,6.25v19.75h-4.5v-35.49h.45l21.3,22.64Z"/>
        <path class="st2" d="M274.61,135.44h.5l16.35,35.74h-5.05l-4.35-9.8h-14.4l-4.35,9.8h-5.05l16.35-35.74ZM271.71,157.54h6.3c1.55,0,2.35.05,2.8.1l.05-.05c-.4-.5-.9-1.3-1.55-2.85l-3.1-7.3c-.7-1.8-1.15-3.2-1.25-4.1h-.2c-.1.9-.55,2.3-1.25,4.1l-3.1,7.3c-.65,1.55-1.15,2.35-1.55,2.85l.05.05c.45-.05,1.25-.1,2.8-.1Z"/>
        <path class="st2" d="M313.55,140.49h-8.95c-.6,0-.95,0-1.3-.15l-.05.1c.1.25.15.65.15,1.2v29.54h-4.5v-29.54c0-.55.05-.95.15-1.2l-.1-.1c-.35.15-.65.15-1.25.15h-9v-4.3h24.84v4.3Z"/>
        <path class="st2" d="M322.4,171.18h-4.5v-34.99h4.5v34.99Z"/>
      </g>
      <g>
        <rect class="st2" x="237.03" y="37.69" width="16.8" height="4.9"/>
        <path class="st2" d="M224.62,85.31c0-13.38,7.82-24.2,19.38-30.27v-6.58c-16.61,5.44-28.51,19.48-28.51,36.84,0,8.59,2.24,15.29,6.14,21.3-10.27-1.8-14.69-8.97-14.69-21.3v-47.64h-18.43v4.9h8.81v42.74c0,17.12,11.16,26.01,28.15,26.3,6.5,7.22,15.69,12.26,26.14,13.75.82.12,1.61.21,2.26.26v-4.87c-.84-.15-1.42-.28-1.42-.28-16.01-4.07-27.81-17.7-27.81-35.16Z"/>
        <path class="st2" d="M263.47,85.31v-34.48c11.37,0,18.18,6.76,18.55,14.51l4.23.83,2.96-17.25-5.03-.98-.62,3.68c-9.08-4.57-16.7-5.39-24.26-5.39-1.86,0-3.68.11-5.48.32l.04,38.75c0,7.54-1.09,11.98-4.95,16.73-4.24-4.68-4.91-10-4.91-16.73,0-3.58,0-20.64,0-20.64-5.63,5.45-9.15,12.22-9.15,20.64,0,17.61,13.6,31.37,30.2,31.37,5.7,0,12.27-1.39,17.06-4.65l-1.21-1.81c-6.47,3.3-19.61,4.07-27.63-3.44,6.79-5.01,10.21-11.42,10.21-21.47Z"/>
      </g>
    </g>
    <rect class="st2" x="59.38" y="181.51" width="263.02" height="1.5"/>
  </g>
  <g>
    <path class="st2" d="M59.24,207.66c0-8.68,6.08-14.6,15-14.6,3.76,0,7,1,9.88,3.08l-2.56,3.64c-2.2-1.6-4.84-2.48-7.48-2.48-6.08,0-10.28,4.24-10.28,10.36s4.2,10.36,10.28,10.36c2.64,0,5.28-.88,7.48-2.48l2.56,3.64c-2.88,2.08-6.12,3.08-9.88,3.08-8.92,0-15-5.92-15-14.6Z"/>
    <path class="st2" d="M104.04,197.58h-10.76c-.48,0-.72-.04-1-.16l-.08.08c.08.2.12.52.12,1.04v5c0,.48-.04.8-.12,1l.08.08c.28-.12.52-.16,1-.16h9.44v3.92h-9.44c-.48,0-.72-.04-1-.16l-.08.08c.08.2.12.56.12,1.04v7.44c0,.52-.04.84-.12,1.04l.08.08c.28-.12.52-.16,1-.16h10.92v3.92h-16.04v-28h15.88v3.92Z"/>
    <path class="st2" d="M120.58,193.06h.4l13.32,28.59h-4.68l-3.28-7.36h-11.12l-3.28,7.36h-4.68l13.32-28.59ZM118.62,210.74h4.32c1.2,0,1.88.04,2.24.08l.04-.04c-.32-.4-.76-1.04-1.28-2.28l-2.08-4.92c-.56-1.36-.92-2.52-1-3.2h-.16c-.08.68-.44,1.84-1,3.2l-2.08,4.92c-.52,1.24-.96,1.88-1.28,2.28l.04.04c.36-.04,1.04-.08,2.24-.08Z"/>
    <path class="st2" d="M153.41,194.94l-1.88,3.96c-1.68-.96-3.76-1.64-5.64-1.64-2.24,0-3.2.92-3.2,2.4,0,1.28.68,2.2,2.16,3.36l5,3.84c2.88,2.2,4.36,4.36,4.36,7.56,0,5.12-3.64,7.84-8.96,7.84-3.56,0-6.84-1.2-9.04-2.6l1.88-3.92c1.8,1.04,4.48,2.28,7.2,2.28,3,0,4.44-1.48,4.44-3.36,0-1.56-.92-2.76-2.92-4.32l-4.76-3.76c-2.4-1.88-3.88-3.88-3.88-6.76,0-4.12,2.92-6.76,7.84-6.76,2.84,0,5.44.88,7.4,1.88Z"/>
  </g>
  <text class="st1" transform="translate(328.75 184.71)"><tspan x="0" y="0">®</tspan></text>
</svg>